<?xml version="1.0" encoding="utf-8"?>
<!-- Generator: Adobe Illustrator 23.0.2, SVG Export Plug-In . SVG Version: 6.00 Build 0)  -->
<svg version="1.1" id="Layer_1" xmlns="http://www.w3.org/2000/svg" xmlns:xlink="http://www.w3.org/1999/xlink" x="0px" y="0px"
	 viewBox="0 0 2048 2048" style="enable-background:new 0 0 2048 2048;" xml:space="preserve">
<style type="text/css">
	.st0{fill:#EBB39E;}
	.st1{fill:#F4BAA6;}
	.st2{fill:#9E9E9E;}
	.st3{fill:#ECF0F9;}
	.st4{fill:#784132;}
	.st5{fill:#9E9E9E;}
	.st6{fill:#4A4970;}
</style>
<g>
	<g>
		<path class="st0" d="M1158.54,962.2c-3.58,12.9-6.87,22.25-6.37,41.82c1.07,40.41,16.17,77,30.69,102.9l235.22,235.22H658.14
			l194.46-218.15c26.55-29.78,43.49-67.06,47.48-106.76c0.44-4.37,0.73-8.78,0.84-13.21c0.58-22.13-3.72-31.21-7.79-47.1
			L1158.54,962.2z"/>
	</g>
</g>
<path class="st1" d="M1310.33,605.74c89.4,28.74,43.24,178.68-25.71,190.3c-7.63,35.83-25.07,96.37-67.63,146.75
	c-23.83,28.2-46.84,44.38-52.59,48.34c-12.72,8.74-39.88,27.06-80.19,36.58c-10.69,2.53-51.99,11.44-103.86,0
	c-10.06-2.22-57.75-13.42-105.17-52.25c-12.1-9.91-57.2-48.66-81.51-116.27c-7.87-21.89-12.65-47.99-14.46-61.4
	c-70.52-20.47-116.39-124.95-39.4-192.15l17.8-187.15l278.66-68.78c0,0,154.5,39.04,157.28,42.76
	C1196.33,396.16,1310.33,605.74,1310.33,605.74z"/>
<path class="st2" d="M1659.13,1756.06c0.17,19.8-15.84,35.94-35.66,35.94H424.53c-19.82,0-35.83-16.14-35.66-35.94
	c0.82-97.37,6.92-334.75,47.21-464.64c11.57-37.23,24.92-65.53,42.07-91.43c9.62-14.55,51.76-75.73,134.1-117.57
	c20.5-10.42,40.57-18.18,59.66-23.91c36.74-10.9,77.28-17.16,121.76-15.28l71.47,63.72l1.48,1.32L1024,1248.57l158.86-141.64
	l71.47-63.72c37.24-1.72,81.01,2.91,121.76,15.28c19.08,5.73,39.16,13.49,59.66,23.91c82.33,41.85,124.47,103.02,134.1,117.57
	c17.15,25.9,30.5,54.2,42.07,91.43C1652.21,1421.31,1658.31,1658.68,1659.13,1756.06z"/>
<path class="st3" d="M1376.09,1058.5l-66.51,175.16l-41.2,108.49l-170.8,449.85H950.42l-170.8-449.85l-36.29-95.56l-71.42-188.09
	c36.74-10.9,77.28-17.16,121.76-15.28l71.47,63.72l1.48,1.32L1024,1248.57l158.86-141.64l71.47-63.72
	C1291.57,1041.49,1335.35,1046.12,1376.09,1058.5z"/>
<g>
	<g>
		<path class="st4" d="M1029.8,916.11c-29.75,0-59.5-11.32-82.15-33.97c-5.27-5.27-5.27-13.82,0-19.09c5.27-5.27,13.82-5.27,19.09,0
			c34.77,34.77,91.34,34.77,126.11,0c5.27-5.27,13.82-5.27,19.09,0c5.27,5.27,5.27,13.82,0,19.09
			C1089.3,904.79,1059.55,916.11,1029.8,916.11z"/>
	</g>
</g>
<path class="st5" d="M601.06,1792v-328.9c0-14.57,11.41-26.91,25.98-27.33c15.14-0.44,27.6,11.73,27.6,26.77V1792H601.06z"/>
<path class="st5" d="M1393.36,1792v-328.88c0-14.58,11.4-26.91,25.97-27.35c15.14-0.46,27.6,11.73,27.6,26.77V1792H1393.36z"/>
<g>
	<g>
		<circle class="st4" cx="899.8" cy="677" r="30"/>
		<circle class="st4" cx="1148.7" cy="677" r="30"/>
	</g>
</g>
<path class="st4" d="M1330.33,556.13c-2.58,4.27-10.22,52.76-13.78,51.92c-5.91-1.39-86.91-20.65-143.18-99.14
	c-12.66-17.66-19.82-24.12-24.98-29.18c-3.45-3.37-14.1-13.46-29.8-24.38c-5.08-3.53-15.92-11.47-18.85-6.53
	c-2.96,4.88-7.01,10.77-12.4,16.74c-5.38,5.96-12.12,12.01-20.46,17.22c-14.64,9.14-29.45,12.71-43.78,13.98
	c-13.99,1.25-28.09,0.2-41.79-2.91c-13.69-3.1-42.37-6.77-95.87-3.07c-30.3,2.09-62.67,3.74-90.04,18.32
	c-34.11,18.18-46.7,55.49-53.47,91.12c-0.03,0.17-0.06,0.34-0.09,0.51c-0.2,1.02-0.39,2.04-0.57,3.06
	c-0.01,0.03-0.02,0.07-0.03,0.12c-0.07,0.19-0.21,0.52-0.42,0.94c-0.01,0.02-0.02,0.05-0.04,0.07c-1.13,2.28-3.89,7.01-4.52,7.24
	l-0.58,0.58c-0.6-0.54-1.19-1.1-1.76-1.67c-10.9-13.82-9.42-43.34-11.28-60.21c-5.91-53.74-5.3-96.32-0.22-108.42
	c3.07-7.3,18.6-43,55.21-78.38c59.2-57.21,156.7-87.17,206.31-97.47c40.17-8.34,82.63-12.57,124.13-9.68
	c23.14,1.6,47.37,4.55,69.86,10.25c18.49,4.68,36.81,13.54,47.91,29.04c11.96,16.69,14.85,37.79,29.17,53.09
	c15.63,16.7,36.94,26.66,52.93,42.97c21.39,21.81,42.67,56.13,45.76,86.89C1356.48,506.87,1344.33,533.03,1330.33,556.13z"/>
</svg>
