<?xml version="1.0" encoding="UTF-8"?>
<svg width="400" height="400" viewBox="0 0 400 400" xmlns="http://www.w3.org/2000/svg">
    <defs>
        <radialGradient id="bg-gradient" cx="50%" cy="30%" r="70%">
            <stop offset="0%" style="stop-color:#f0f8ff;stop-opacity:1" />
            <stop offset="100%" style="stop-color:#e6f3ff;stop-opacity:1" />
        </radialGradient>
        <filter id="softShadow">
            <feGaussianBlur in="SourceAlpha" stdDeviation="3"/>
            <feOffset dx="2" dy="2" result="offset"/>
            <feFlood flood-color="#000000" flood-opacity="0.2"/>
            <feComposite in2="offset" operator="in"/>
            <feMerge>
                <feMergeNode/>
                <feMergeNode in="SourceGraphic"/>
            </feMerge>
        </filter>
    </defs>
    
    <!-- Background -->
    <rect width="400" height="400" fill="url(#bg-gradient)"/>
    
    <!-- Face -->
    <ellipse cx="200" cy="180" rx="80" ry="100" fill="#8D5524" filter="url(#softShadow)"/>
    
    <!-- Hair -->
    <ellipse cx="200" cy="120" rx="90" ry="60" fill="#800080"/>
    <ellipse cx="200" cy="100" rx="85" ry="40" fill="#800080"/>
    
    <!-- Eyes -->
    <ellipse cx="175" cy="160" rx="12" ry="8" fill="white"/>
    <ellipse cx="225" cy="160" rx="12" ry="8" fill="white"/>
    <circle cx="175" cy="160" r="6" fill="#8B4513"/>
    <circle cx="225" cy="160" r="6" fill="#8B4513"/>
    <circle cx="177" cy="158" r="2" fill="white"/>
    <circle cx="227" cy="158" r="2" fill="white"/>
    
    <!-- Eyebrows -->
    <ellipse cx="175" cy="145" rx="15" ry="3" fill="#800080"/>
    <ellipse cx="225" cy="145" rx="15" ry="3" fill="#800080"/>
    
    <!-- Nose -->
    <ellipse cx="200" cy="180" rx="8" ry="12" fill="#8D5524" opacity="0.8"/>
    <ellipse cx="196" cy="185" rx="2" ry="3" fill="#8D5524" opacity="0.6"/>
    <ellipse cx="204" cy="185" rx="2" ry="3" fill="#8D5524" opacity="0.6"/>
    
    <!-- Mouth -->
    <ellipse cx="200" cy="205" rx="12" ry="4" fill="#d4716b"/>
    
    <!-- Clothing -->
    <rect x="120" y="280" width="160" height="120" fill="#09b1fc" rx="20"/>
    
    <!-- Accessories (sometimes) -->
    <rect x="165" y="140" width="70" height="25" fill="none" stroke="#333" stroke-width="2" rx="12"/>
    
    
</svg>