<?xml version="1.0" encoding="UTF-8"?>
<svg width="512" height="512" viewBox="0 0 512 512" xmlns="http://www.w3.org/2000/svg">
    <defs>
        <radialGradient id="bg" cx="50%" cy="30%" r="80%">
            <stop offset="0%" style="stop-color:#37474f;stop-opacity:1" />
            <stop offset="100%" style="stop-color:#1e2e36;stop-opacity:1" />
        </radialGradient>
        <linearGradient id="face-gradient" x1="0%" y1="0%" x2="100%" y2="100%">
            <stop offset="0%" style="stop-color:#FDBCB4;stop-opacity:1" />
            <stop offset="100%" style="stop-color:#F0D0A0;stop-opacity:1" />
        </linearGradient>
        <filter id="soft-shadow" x="-50%" y="-50%" width="200%" height="200%">
            <feGaussianBlur in="SourceAlpha" stdDeviation="4"/>
            <feOffset dx="2" dy="4" result="offset"/>
            <feFlood flood-color="#000000" flood-opacity="0.15"/>
            <feComposite in2="offset" operator="in"/>
            <feMerge>
                <feMergeNode/>
                <feMergeNode in="SourceGraphic"/>
            </feMerge>
        </filter>
        <filter id="photo-realistic">
            <feGaussianBlur in="SourceGraphic" stdDeviation="0.5"/>
        </filter>
    </defs>
    
    <!-- Professional background -->
    <rect width="512" height="512" fill="url(#bg)"/>
    
    <!-- Shoulders/clothing -->
    <path d="M 100 512 Q 150 380 200 380 Q 312 380 362 380 Q 412 380 412 512 Z" 
          fill="#2c3e50" opacity="0.9" filter="url(#soft-shadow)"/>
    
    <!-- Neck -->
    <ellipse cx="256" cy="380" rx="35" ry="60" fill="url(#face-gradient)" filter="url(#soft-shadow)"/>
    
    <!-- Face shape -->
    <ellipse cx="256" cy="280" rx="90" ry="110" fill="url(#face-gradient)" filter="url(#soft-shadow)"/>
    
    <!-- Hair -->
    <path d="M 166 200 Q 200 160 256 170 Q 312 160 346 200 Q 350 220 340 240 Q 320 180 256 185 Q 192 180 172 240 Q 162 220 166 200 Z" 
          fill="#4a4a4a" filter="url(#soft-shadow)"/>
    
    <!-- Forehead highlight -->
    <ellipse cx="256" cy="220" rx="60" ry="25" fill="white" opacity="0.1"/>
    
    <!-- Eyes -->
    <g filter="url(#photo-realistic)">
        <!-- Eye sockets -->
        <ellipse cx="230" cy="260" rx="25" ry="15" fill="white" opacity="0.9"/>
        <ellipse cx="282" cy="260" rx="25" ry="15" fill="white" opacity="0.9"/>
        
        <!-- Iris -->
        <circle cx="230" cy="260" r="12" fill="#4a90e2"/>
        <circle cx="282" cy="260" r="12" fill="#4a90e2"/>
        
        <!-- Pupils -->
        <circle cx="230" cy="260" r="6" fill="#1a1a1a"/>
        <circle cx="282" cy="260" r="6" fill="#1a1a1a"/>
        
        <!-- Light reflection -->
        <circle cx="233" cy="257" r="3" fill="white" opacity="0.8"/>
        <circle cx="285" cy="257" r="3" fill="white" opacity="0.8"/>
        
        <!-- Eyelashes -->
        <path d="M 210 250 Q 230 245 250 250" stroke="#2a2a2a" stroke-width="1" fill="none"/>
        <path d="M 262 250 Q 282 245 302 250" stroke="#2a2a2a" stroke-width="1" fill="none"/>
    </g>
    
    <!-- Eyebrows -->
    <ellipse cx="230" cy="240" rx="20" ry="6" fill="#3a3a3a" opacity="0.8" transform="rotate(-10 230 240)"/>
    <ellipse cx="282" cy="240" rx="20" ry="6" fill="#3a3a3a" opacity="0.8" transform="rotate(10 282 240)"/>
    
    <!-- Nose -->
    <g filter="url(#photo-realistic)">
        <ellipse cx="256" cy="290" rx="12" ry="20" fill="url(#face-gradient)" opacity="0.6"/>
        <ellipse cx="252" cy="300" rx="3" ry="5" fill="#d4a574" opacity="0.7"/>
        <ellipse cx="260" cy="300" rx="3" ry="5" fill="#d4a574" opacity="0.7"/>
    </g>
    
    <!-- Mouth -->
    <g filter="url(#photo-realistic)">
        <ellipse cx="256" cy="325" rx="15" ry="4" fill="#c9717d"/>
    </g>
    
    <!-- Cheek highlights -->
    <ellipse cx="200" cy="300" rx="15" ry="10" fill="white" opacity="0.1"/>
    <ellipse cx="312" cy="300" rx="15" ry="10" fill="white" opacity="0.1"/>
    
    <!-- Subtle facial features -->
    <ellipse cx="256" cy="320" rx="8" ry="4" fill="#d4a574" opacity="0.3"/>
    
    <!-- Professional lighting effect -->
    <ellipse cx="256" cy="256" rx="120" ry="140" fill="white" opacity="0.05"/>
    
    <!-- Quality indicator -->
    <text x="480" y="30" font-family="Arial, sans-serif" font-size="14" fill="rgba(255,255,255,0.7)" text-anchor="end">HD</text>
</svg>